<svg viewBox="0 0 16 16" xmlns="http://www.w3.org/2000/svg">
    <style>
        path {
            fill: #000000;
        }

        @media (prefers-color-scheme: dark) {
            path {
                fill: #ffffff;
            }
        }
    </style>
    <path fill-rule="evenodd" clip-rule="evenodd" d="M2 0h1v3h2v1H2V0zm4 2v1H5V2h1zm4 1H8V0H7v1H6v1h1v3H6v1H3v1H2v1H1v1h1v1H1v1h1v3h1v-3h1v-1H3V9h1V8H3V7h3V6h1V5h1V4h2V3zm1-1v1h-1V2h1zm1 3V2h-1V1h1V0h1v5h-1zm-1 1V5h1v1h-1zm0 1H9V6h2v1zm1 1h-1V7h1v1zm1 1V8h-1v3h-1v-1h-1V9H8V8H7v8h1v-6h2v1h1v1h1v1h1V9zM3 8v1H2V8h1zm0 2H2v1h1v-1zm12-4h-1v1h1V6z"/>
</svg>
